<?xml version="1.0" encoding="UTF-8" standalone="no"?>
<!-- Generator: Adobe Illustrator 16.0.0, SVG Export Plug-In . SVG Version: 6.00 Build 0)  -->

<svg
   xmlns:dc="http://purl.org/dc/elements/1.1/"
   xmlns:cc="http://creativecommons.org/ns#"
   xmlns:rdf="http://www.w3.org/1999/02/22-rdf-syntax-ns#"
   xmlns:svg="http://www.w3.org/2000/svg"
   xmlns="http://www.w3.org/2000/svg"
   xmlns:sodipodi="http://sodipodi.sourceforge.net/DTD/sodipodi-0.dtd"
   xmlns:inkscape="http://www.inkscape.org/namespaces/inkscape"
   version="1.1"
   id="Capa_1"
   x="0px"
   y="0px"
   width="32"
   height="32"
   viewBox="0 0 32 32"
   xml:space="preserve"
   inkscape:version="0.48.5 r10040"
   sodipodi:docname="baby29.svg"><metadata
     id="metadata5011"><rdf:RDF><cc:Work
         rdf:about=""><dc:format>image/svg+xml</dc:format><dc:type
           rdf:resource="http://purl.org/dc/dcmitype/StillImage" /></cc:Work></rdf:RDF></metadata><defs
     id="defs5009" /><sodipodi:namedview
     pagecolor="#ffffff"
     bordercolor="#666666"
     borderopacity="1"
     objecttolerance="10"
     gridtolerance="10"
     guidetolerance="10"
     inkscape:pageopacity="0"
     inkscape:pageshadow="2"
     inkscape:window-width="1366"
     inkscape:window-height="705"
     id="namedview5007"
     showgrid="false"
     inkscape:zoom="4.5181568"
     inkscape:cx="61.712024"
     inkscape:cy="29.606356"
     inkscape:window-x="0"
     inkscape:window-y="27"
     inkscape:window-maximized="1"
     inkscape:current-layer="Capa_1" /><g
     id="g4967"
     transform="matrix(0.09849154,0,0,0.10222924,0,-0.60724285)"><path
       d="m 0.459,281.604 c 0.242,0.67 0.593,1.298 1.052,1.888 l 32.682,35.47 h 134.335 v -23.91 l 22.038,23.91 H 324.901 V 185.807 l -0.484,-2.7 h -1.266 c -0.175,-0.2 -0.354,-0.391 -0.549,-0.569 l -32.7,-30.22 -0.401,-0.319 c -0.58,-0.458 -1.255,-0.835 -2.193,-1.181 -0.644,-0.211 -1.318,-0.34 -1.487,-0.282 l -79.492,-0.058 V 41.314 l -0.479,-2.7 h -1.261 c -0.179,-0.203 -0.358,-0.393 -0.554,-0.572 l -32.7,-30.217 -0.411,-0.33 C 170.333,7.031 169.658,6.657 168.74,6.317 168.096,6.108 167.432,5.982 167.261,6.037 L 37.8,5.94 37.821,134.839 c 0.021,0.675 0.134,1.345 0.438,2.272 0.243,0.665 0.588,1.284 1.052,1.891 L 49.879,150.472 0,150.432 0.021,279.331 c 0.021,0.675 0.134,1.339 0.438,2.273 z M 80.594,38.614 62.229,20.255 h 101.466 l 19.873,18.359 H 80.594 z M 203.359,304.648 V 197.419 H 310.584 V 304.648 H 203.359 z M 84.657,150.498 V 94.323 h 0.134 V 52.926 h 107.225 v 41.396 h 0.137 v 56.138 2.671 2.7 3.512 2.7 0.812 h -17.053 -3.823 -9.498 -2.705 -2.7 -11.427 -3.979 -4.002 -5.149 -3.981 -43.179 v -0.812 -2.7 -3.436 -2.777 -2.632 z m 114.505,32.608 -8.638,-8.638 h 15.799 v -9.725 h 75.942 l 19.865,18.362 H 199.162 l 0,0.001 z m -44.943,14.313 V 304.648 H 46.986 V 197.419 h 107.233 z m -82.226,-22.95 h 64.428 l 9.348,8.638 H 42.794 L 24.429,164.75 h 38.604 l 8.96,9.719 z m 94.732,8.579 v -8.579 -2.7 -1.129 l 0.981,1.129 2.362,2.7 20.957,23.983 V 301.59 l -22.497,-25.148 -1.804,-2.015 V 183.048 z M 47.925,24.84 l 24.3,27.81 v 97.838 2.645 2.658 L 69.85,153.133 67.479,150.488 47.925,128.627 V 24.84 z m -13.5,173.612 V 301.59 l -24.3,-27.163 V 170.64 l 24.3,27.812 z"
       id="path4969"
       inkscape:connector-curvature="0" /><path
       d="m 99.528,146.846 c 1.155,0.575 2.386,0.849 3.602,0.849 2.975,0 5.843,-1.648 7.256,-4.498 l 6.455,-12.97 h 45.479 l 6.452,12.97 c 1.413,2.845 4.281,4.498 7.256,4.498 1.218,0 2.447,-0.274 3.607,-0.849 4.002,-1.991 5.632,-6.855 3.639,-10.858 L 162.551,94.322 146.831,62.721 c -0.032,-0.066 -0.082,-0.119 -0.113,-0.185 -0.14,-0.264 -0.309,-0.501 -0.47,-0.746 -0.134,-0.198 -0.258,-0.403 -0.417,-0.588 -0.171,-0.211 -0.367,-0.393 -0.562,-0.583 -0.182,-0.185 -0.361,-0.372 -0.567,-0.54 -0.192,-0.156 -0.403,-0.285 -0.609,-0.425 -0.237,-0.158 -0.469,-0.319 -0.725,-0.461 -0.063,-0.032 -0.119,-0.084 -0.182,-0.119 -0.164,-0.079 -0.335,-0.119 -0.509,-0.188 -0.258,-0.108 -0.512,-0.216 -0.778,-0.292 -0.253,-0.077 -0.512,-0.129 -0.778,-0.179 -0.253,-0.048 -0.506,-0.095 -0.759,-0.124 -0.261,-0.026 -0.525,-0.026 -0.789,-0.026 -0.266,0 -0.525,0 -0.789,0.026 -0.261,0.029 -0.514,0.076 -0.767,0.124 -0.258,0.05 -0.514,0.103 -0.767,0.179 -0.269,0.082 -0.541,0.195 -0.805,0.303 -0.158,0.063 -0.324,0.103 -0.479,0.177 -0.066,0.034 -0.113,0.076 -0.174,0.108 -0.274,0.147 -0.525,0.318 -0.778,0.493 -0.189,0.129 -0.382,0.248 -0.562,0.393 -0.222,0.179 -0.409,0.382 -0.609,0.583 -0.179,0.179 -0.361,0.353 -0.525,0.546 -0.161,0.195 -0.292,0.412 -0.433,0.617 -0.161,0.237 -0.319,0.47 -0.458,0.728 -0.032,0.066 -0.082,0.119 -0.113,0.185 l -15.72,31.601 -20.725,41.665 c -1.978,4.003 -0.348,8.862 3.659,10.853 z m 40.052,-62.326 4.875,9.809 9.801,19.709 h -29.36 l 9.806,-19.709 4.878,-9.809 z"
       id="path4971"
       inkscape:connector-curvature="0" /><path
       d="m 86.914,295.91 h 18.607 c 16.248,0 29.468,-13.22 29.468,-29.468 0,-10.937 -6.004,-20.477 -14.871,-25.565 2.685,-3.918 4.267,-8.648 4.267,-13.753 0,-13.463 -10.953,-24.411 -24.419,-24.411 H 86.914 c -5.769,0 -10.613,3.797 -12.308,9.007 -0.438,0.997 -0.691,2.094 -0.691,3.254 v 0.733 22.845 11.422 32.943 0.427 c 0,0.639 0.092,1.245 0.227,1.841 1.087,6.08 6.383,10.725 12.772,10.725 z m 18.607,-16.199 H 90.115 v -26.536 h 15.406 c 7.317,0 13.268,5.948 13.268,13.268 0.001,7.314 -5.951,13.268 -13.268,13.268 z m 2.664,-52.587 c 0,4.529 -3.688,8.221 -8.219,8.221 h -9.851 v -16.432 h 9.851 c 4.535,0 8.219,3.686 8.219,8.211 z"
       id="path4973"
       inkscape:connector-curvature="0" /><path
       d="m 283.806,269.949 c -5.273,4.968 -12.171,7.71 -19.427,7.71 -15.631,0 -28.345,-12.714 -28.345,-28.35 0,-15.631 12.714,-28.34 28.345,-28.34 6.939,0 13.615,2.531 18.805,7.13 3.344,2.974 8.464,2.668 11.433,-0.675 2.975,-3.354 2.669,-8.47 -0.675,-11.443 -8.158,-7.225 -18.657,-11.212 -29.558,-11.212 -24.559,0 -44.545,19.986 -44.545,44.54 0,24.563 19.981,44.55 44.545,44.55 11.396,0 22.249,-4.304 30.544,-12.118 3.254,-3.069 3.406,-8.195 0.343,-11.454 -3.081,-3.249 -8.196,-3.417 -11.465,-0.338 z"
       id="path4975"
       inkscape:connector-curvature="0" /></g><g
     id="g4977"
     transform="translate(0,-292.901)" /><g
     id="g4979"
     transform="translate(0,-292.901)" /><g
     id="g4981"
     transform="translate(0,-292.901)" /><g
     id="g4983"
     transform="translate(0,-292.901)" /><g
     id="g4985"
     transform="translate(0,-292.901)" /><g
     id="g4987"
     transform="translate(0,-292.901)" /><g
     id="g4989"
     transform="translate(0,-292.901)" /><g
     id="g4991"
     transform="translate(0,-292.901)" /><g
     id="g4993"
     transform="translate(0,-292.901)" /><g
     id="g4995"
     transform="translate(0,-292.901)" /><g
     id="g4997"
     transform="translate(0,-292.901)" /><g
     id="g4999"
     transform="translate(0,-292.901)" /><g
     id="g5001"
     transform="translate(0,-292.901)" /><g
     id="g5003"
     transform="translate(0,-292.901)" /><g
     id="g5005"
     transform="translate(0,-292.901)" /></svg>