<?xml version="1.0" encoding="UTF-8" standalone="no"?>
<!-- Generator: Adobe Illustrator 18.1.1, SVG Export Plug-In . SVG Version: 6.00 Build 0)  -->

<svg
   xmlns:dc="http://purl.org/dc/elements/1.1/"
   xmlns:cc="http://creativecommons.org/ns#"
   xmlns:rdf="http://www.w3.org/1999/02/22-rdf-syntax-ns#"
   xmlns:svg="http://www.w3.org/2000/svg"
   xmlns="http://www.w3.org/2000/svg"
   xmlns:sodipodi="http://sodipodi.sourceforge.net/DTD/sodipodi-0.dtd"
   xmlns:inkscape="http://www.inkscape.org/namespaces/inkscape"
   version="1.1"
   id="Capa_1"
   x="0px"
   y="0px"
   viewBox="0 0 16 16"
   xml:space="preserve"
   inkscape:version="0.48.5 r10040"
   width="100%"
   height="100%"
   sodipodi:docname="bears1.svg"><metadata
     id="metadata5138"><rdf:RDF><cc:Work
         rdf:about=""><dc:format>image/svg+xml</dc:format><dc:type
           rdf:resource="http://purl.org/dc/dcmitype/StillImage" /></cc:Work></rdf:RDF></metadata><defs
     id="defs5136" /><sodipodi:namedview
     pagecolor="#ffffff"
     bordercolor="#666666"
     borderopacity="1"
     objecttolerance="10"
     gridtolerance="10"
     guidetolerance="10"
     inkscape:pageopacity="0"
     inkscape:pageshadow="2"
     inkscape:window-width="1366"
     inkscape:window-height="705"
     id="namedview5134"
     showgrid="false"
     inkscape:zoom="2.7825085"
     inkscape:cx="88.269621"
     inkscape:cy="38.995849"
     inkscape:window-x="0"
     inkscape:window-y="27"
     inkscape:window-maximized="1"
     inkscape:current-layer="Capa_1" /><g
     id="g5095"
     transform="matrix(0.05372391,0,0,0.04479876,-1.5938271,-2.5e-4)"><g
       id="Layer_5_41_"><g
         id="g5098"><circle
           cx="177.567"
           cy="120.841"
           r="12.338"
           id="circle5100"
           sodipodi:cx="177.567"
           sodipodi:cy="120.841"
           sodipodi:rx="12.338"
           sodipodi:ry="12.338"
           d="m 189.905,120.841 c 0,6.81409 -5.52391,12.338 -12.338,12.338 -6.81409,0 -12.338,-5.52391 -12.338,-12.338 0,-6.81409 5.52391,-12.338 12.338,-12.338 6.81409,0 12.338,5.52391 12.338,12.338 z" /><path
           d="m 272.81,282.602 c -5.939,-3.188 -5.025,-8.935 -5.025,-12.538 v -50.341 c 17.373,-3.548 55.607,-3.874 55.607,-38.214 0,-16.969 -13.844,-23.183 -30.727,-21.466 -13.463,1.368 -19.795,10.353 -42.602,1.775 -2.891,-1.087 -10.957,-8.202 -6.339,-13.831 11.806,-14.393 18.466,-33.157 18.466,-53.363 0,-3.303 -0.028,-9.921 2.934,-11.157 15.189,-6.34 25.461,-22.073 25.461,-39.859 C 290.585,19.525 271.408,0 247.755,0 c -12.823,0 -24.328,5.742 -32.178,14.835 -0.687,0.797 -1.915,2.451 -4.924,1.152 -10.654,-5.012 -19.57,-6.498 -32.078,-6.498 -13.434,0 -23.197,1.812 -34.446,7.544 -3.55,1.086 -5.962,-2.571 -7.717,-4.346 C 128.671,4.848 118.009,0 106.229,0 82.575,0 63.397,19.524 63.397,43.608 c 0,18.489 11.303,34.289 27.257,40.632 1.542,0.613 3.925,2.463 4.306,10.384 0.963,20.033 6.816,38.489 18.213,53.038 4.227,5.394 0.154,12.357 -6.207,14.323 -23.203,7.173 -29.063,-0.559 -42.477,-1.943 -16.881,-1.742 -30.727,4.497 -30.727,21.466 0,33.416 38.223,34.606 55.604,38.104 v 50.451 c 0,3.702 0.518,8.887 -7.201,13.656 -21.557,8.884 -52.498,9.57 -52.498,39.738 0,18.357 15.225,36.778 33.238,33.238 22.566,-4.433 34.411,-11.924 68.651,-27.42 7.374,-3.36 12.577,-1.675 15.815,-1.221 9.713,1.364 20.228,1.892 31.203,1.892 12.263,0 23.949,-0.658 34.582,-2.406 2.684,-0.441 8.96,-0.694 14.722,1.648 33.415,15.554 44.138,23.032 66.37,27.507 17.996,3.622 33.238,-14.881 33.238,-33.238 0.002,-30.166 -33.158,-31.857 -54.676,-40.855 z M 219.045,133.18 c 0,17.972 -18.569,32.544 -41.479,32.544 -22.906,0 -41.478,-14.572 -41.478,-32.544 0,-17.974 18.571,-32.544 41.478,-32.544 22.909,0 41.479,14.57 41.479,32.544 z M 117.879,79.506 c 0,-8.178 6.627,-14.807 14.806,-14.807 8.177,0 14.808,6.629 14.808,14.807 0,8.178 -6.631,14.807 -14.808,14.807 -8.179,-0.001 -14.806,-6.63 -14.806,-14.807 z m 110.805,183.176 c 0,27.673 -22.435,40.1 -50.106,40.1 -27.674,0 -50.107,-12.427 -50.107,-40.1 V 239.12 c 0,-27.673 22.434,-50.106 50.107,-50.106 27.672,0 50.106,22.434 50.106,50.106 v 23.562 z M 217.207,94.312 c -8.178,0 -14.807,-6.629 -14.807,-14.807 0,-8.178 6.629,-14.807 14.807,-14.807 8.178,0 14.807,6.629 14.807,14.807 0,8.178 -6.629,14.807 -14.807,14.807 z"
           id="path5102"
           inkscape:connector-curvature="0" /></g></g></g><g
     id="g5104"
     transform="translate(0,-341.153)" /><g
     id="g5106"
     transform="translate(0,-341.153)" /><g
     id="g5108"
     transform="translate(0,-341.153)" /><g
     id="g5110"
     transform="translate(0,-341.153)" /><g
     id="g5112"
     transform="translate(0,-341.153)" /><g
     id="g5114"
     transform="translate(0,-341.153)" /><g
     id="g5116"
     transform="translate(0,-341.153)" /><g
     id="g5118"
     transform="translate(0,-341.153)" /><g
     id="g5120"
     transform="translate(0,-341.153)" /><g
     id="g5122"
     transform="translate(0,-341.153)" /><g
     id="g5124"
     transform="translate(0,-341.153)" /><g
     id="g5126"
     transform="translate(0,-341.153)" /><g
     id="g5128"
     transform="translate(0,-341.153)" /><g
     id="g5130"
     transform="translate(0,-341.153)" /><g
     id="g5132"
     transform="translate(0,-341.153)" /></svg>