<?xml version="1.0" encoding="iso-8859-1"?>
<!-- Generator: Adobe Illustrator 19.1.0, SVG Export Plug-In . SVG Version: 6.00 Build 0)  -->
<svg version="1.1" id="Capa_1" xmlns="http://www.w3.org/2000/svg" xmlns:xlink="http://www.w3.org/1999/xlink" x="0px" y="0px"
	 viewBox="0 0 299.457 299.457" style="enable-background:new 0 0 299.457 299.457;" xml:space="preserve">
<g>
	<g>
		<path d="M291.142,8.301c-11.068-11.068-29.073-11.068-40.141,0c-0.424,0.424-28.861,34.104-36.752,57.458L198.998,50.56
			c-2.436-2.436-6.567-2.277-9.003,0.159c-18.641,18.641-45.119,27.855-72.286,25.472h-0.053c-2.913-0.265-5.825-0.635-8.738-1.165
			c-26.849-4.819-50.362,1.218-66.196,17.052c-13.027,13.027-19.435,31.139-18.588,52.48c2.012,50.044-4.713,95.958-19.965,136.47
			l-3.76,9.956c-0.847,2.277-0.318,4.872,1.43,6.62c1.165,1.165,2.807,1.853,4.395,1.853c0.741,0,1.483-0.106,2.171-0.371
			l9.956-3.76c40.512-15.252,86.425-21.924,136.469-19.965c21.342,0.9,39.453-5.56,52.48-18.588
			c15.834-15.834,21.871-39.347,17.052-66.196c-0.53-2.966-0.9-5.878-1.165-8.844c0-0.106,0-0.159,0-0.265
			c-2.277-27.061,6.937-53.433,25.684-72.18c2.436-2.436,2.436-6.408,0-8.844l-15.199-15.199
			c23.407-7.891,57.087-36.328,57.458-36.752C302.21,37.374,302.21,19.369,291.142,8.301z M16.932,282.511
			c11.65-31.986,18.217-67.043,19.7-104.696c14.192,24.148,41.677,63.442,80.494,85.154
			C81.169,264.771,47.647,271.337,16.932,282.511z M198.521,247.877c-10.485,10.485-25.419,15.622-43.16,14.934
			c-2.542-0.106-5.084-0.159-7.573-0.212c-0.371-0.212-0.741-0.371-1.165-0.477c-67.838-20.177-109.197-109.25-109.62-110.097
			c-0.053-0.106-0.106-0.212-0.159-0.318c-0.053-2.542-0.106-5.031-0.212-7.573c-0.688-17.741,4.448-32.674,14.934-43.16
			c9.903-9.903,23.725-15.04,39.929-15.04c4.872,0,10.009,0.477,15.252,1.43c2.065,0.371,4.131,0.688,6.196,0.953
			c6.461,15.887,34.951,76.681,98.341,98.553c0.265,1.959,0.53,3.972,0.9,5.931C216.208,215.415,211.389,235.009,198.521,247.877z
			 M210.436,173.155c-48.826-19.223-74.563-64.925-83.513-84.148c25.049-0.212,49.038-9.109,67.573-25.419l20.6,20.6l0.053,0.053
			l0.053,0.053l20.6,20.6C219.386,123.482,210.436,147.789,210.436,173.155z M282.351,39.598
			c-9.956,9.956-47.555,34.951-57.935,35.428c0.53-10.38,25.472-47.979,35.428-57.935c3.019-3.019,6.99-4.66,11.227-4.66
			s8.208,1.642,11.227,4.66C288.547,23.288,288.547,33.402,282.351,39.598z"/>
		<path d="M76.826,118.981c-1.483-3.124-5.19-4.448-8.314-2.966c-3.124,1.483-4.448,5.19-2.966,8.314
			c0.477,0.953,4.607,9.532,10.062,14.987c1.218,1.218,2.807,1.853,4.395,1.853s3.177-0.635,4.395-1.853
			c2.436-2.436,2.436-6.408,0-8.844C81.063,127.136,77.78,121.046,76.826,118.981z"/>
		<path d="M175.908,220.234c-2.065-0.953-8.155-4.237-11.492-7.573c-2.436-2.436-6.408-2.436-8.844,0
			c-2.436,2.436-2.436,6.408,0,8.844c5.455,5.455,14.034,9.585,14.987,10.062c0.847,0.424,1.748,0.583,2.648,0.583
			c2.33,0,4.554-1.324,5.666-3.548C180.357,225.477,178.98,221.717,175.908,220.234z"/>
		<path d="M117.868,170.137c-2.436-2.436-6.408-2.436-8.844,0c-2.436,2.436-2.436,6.408,0,8.844l11.492,11.492
			c1.218,1.218,2.807,1.853,4.395,1.853c1.589,0,3.177-0.635,4.395-1.853c2.436-2.436,2.436-6.408,0-8.844L117.868,170.137z"/>
	</g>
</g>
<g>
</g>
<g>
</g>
<g>
</g>
<g>
</g>
<g>
</g>
<g>
</g>
<g>
</g>
<g>
</g>
<g>
</g>
<g>
</g>
<g>
</g>
<g>
</g>
<g>
</g>
<g>
</g>
<g>
</g>
</svg>
