<?xml version="1.0" encoding="iso-8859-1"?>
<!-- Generator: Adobe Illustrator 16.0.0, SVG Export Plug-In . SVG Version: 6.00 Build 0)  -->
<!DOCTYPE svg PUBLIC "-//W3C//DTD SVG 1.1//EN" "http://www.w3.org/Graphics/SVG/1.1/DTD/svg11.dtd">
<svg version="1.1" id="Capa_1" xmlns="http://www.w3.org/2000/svg" xmlns:xlink="http://www.w3.org/1999/xlink" x="0px" y="0px"
	 width="882.935px" height="882.935px" viewBox="0 0 882.935 882.935" style="enable-background:new 0 0 882.935 882.935;"
	 xml:space="preserve">
<g>
	<g>
		<path d="M383.333,694.417c-30.6-41.899-51.6-92.899-71.8-142.199c-34.399-83.601-66.8-162.601-141.2-195.301
			c-10.6-4.699-20.9-8-30.7-10.199c-19.5,11.8-38,26.199-54.9,43c-4.5,4.5-8.7,9.1-12.9,13.699c4.5,1.601,8.9,3.4,13.2,5.301
			c44.7,19.699,81.5,52.399,112.3,100.199c25.9,40.101,44.7,85.801,62.8,129.9c19.699,47.8,38.199,93,64.199,128.5
			c20.601,28.1,47.601,52.1,74.301,65.9c11.199,5.8,22.199,9.8,32.899,12c22.101-12.5,42.901-28.2,61.701-47
			c2.9-2.9,5.8-5.9,8.5-8.9c-7.2-2.7-14.4-6-21.6-9.7C444.334,761.218,409.934,730.917,383.333,694.417z"/>
		<path d="M33.234,459.317c-57.5,109.1-40.4,247.2,51.4,339c56.4,56.4,130.4,84.6,204.3,84.6c19,0,38-1.899,56.7-5.6
			c-27.301-18.3-52.9-43-73.7-71.5c-30.6-41.9-51.6-92.9-71.8-142.2c-34.4-83.6-66.8-162.6-141.2-195.3
			C50.034,464.417,41.534,461.518,33.234,459.317z"/>
		<path d="M463.334,363.718c-51.4-39-112.9-58.601-174.4-58.601c-21.5,0-43.1,2.4-64.2,7.2c32.2,19.9,59.9,48.1,84,85.3
			c25.9,40.101,44.7,85.8,62.8,129.9c19.7,47.8,38.2,93,64.2,128.5c20.6,28.1,47.6,52.1,74.3,65.899
			c10.9,5.601,21.5,9.601,31.8,11.801c54.601-98.7,47-222.4-22.6-314.2l145.9-145.9c5.3,3,10.899,5.7,16.6,8
			c17.5,7.1,36,10.7,55,10.7s37.5-3.6,55-10.7c18.2-7.4,34.5-18.2,48.4-32.1c13.899-13.9,24.699-30.2,32.1-48.4
			c7.1-17.5,10.7-36,10.7-55s-3.601-37.5-10.7-55c-7.4-18.2-18.2-34.5-32.1-48.4c-13.9-13.9-30.2-24.7-48.4-32
			c-17.5-7.1-36-10.7-55-10.7s-37.5,3.6-55,10.7c-18.2,7.4-34.5,18.2-48.4,32.1c-13.899,13.9-24.699,30.2-32.1,48.4
			c-7.1,17.5-10.7,36-10.7,55s3.601,37.5,10.7,55c2.3,5.7,5,11.3,8,16.6L463.334,363.718z M736.734,60.117c22,0,44.1,8.4,60.9,25.2
			c33.6,33.6,33.6,88.1,0,121.7c-16.801,16.8-38.801,25.2-60.9,25.2c-22,0-44.1-8.4-60.9-25.2c-33.6-33.6-33.6-88.1,0-121.7
			C692.734,68.518,714.734,60.117,736.734,60.117z"/>
	</g>
</g>
<g>
</g>
<g>
</g>
<g>
</g>
<g>
</g>
<g>
</g>
<g>
</g>
<g>
</g>
<g>
</g>
<g>
</g>
<g>
</g>
<g>
</g>
<g>
</g>
<g>
</g>
<g>
</g>
<g>
</g>
</svg>
