<?xml version="1.0" encoding="iso-8859-1"?>
<!-- Generator: Adobe Illustrator 16.0.0, SVG Export Plug-In . SVG Version: 6.00 Build 0)  -->
<!DOCTYPE svg PUBLIC "-//W3C//DTD SVG 1.1//EN" "http://www.w3.org/Graphics/SVG/1.1/DTD/svg11.dtd">
<svg version="1.1" id="Capa_1" xmlns="http://www.w3.org/2000/svg" xmlns:xlink="http://www.w3.org/1999/xlink" x="0px" y="0px"
	 width="45.846px" height="45.846px" viewBox="0 0 45.846 45.846" style="enable-background:new 0 0 45.846 45.846;"
	 xml:space="preserve">
<g>
	<g>
		<path d="M42.028,0H29.171c-0.912,0-1.728,0.586-2.033,1.445l-7.145,20.009c-0.087,0.241-0.128,0.495-0.126,0.743l-4.021,4.021
			l-0.394-1.574c-0.163-0.652-0.666-1.168-1.315-1.35c-0.65-0.18-1.347,0.004-1.823,0.48c-0.476,0.476-0.66,1.173-0.48,1.821
			c0.181,0.648,0.695,1.151,1.35,1.315l1.607,0.405c-1.211,1.476-1.884,3.311-1.884,5.246v2.952c0,1.623-0.876,3.104-2.283,3.869
			l0.099-1.166c0.048-0.617-0.235-1.213-0.749-1.56c-0.512-0.348-1.17-0.391-1.724-0.113c-0.555,0.275-0.916,0.828-0.949,1.445
			c-0.033,0.618,0.269,1.206,0.79,1.539l0.917,0.586l-6.462,2.824c-0.768,0.335-1.118,1.229-0.783,1.994
			c0.249,0.57,0.807,0.912,1.392,0.912c0.202,0,0.409-0.041,0.606-0.129l6.604-2.884l-0.086,1.093
			c-0.049,0.617,0.238,1.213,0.751,1.56s1.172,0.391,1.727,0.112c0.554-0.273,0.916-0.828,0.95-1.443
			c0.032-0.618-0.27-1.206-0.791-1.539l-0.854-0.549c2.393-1.29,3.911-3.799,3.911-6.551v-2.953c0-0.987,0.269-1.935,0.775-2.754
			l0.22,0.887c0.164,0.652,0.666,1.17,1.315,1.35c0.649,0.181,1.346-0.004,1.823-0.479c0.478-0.479,0.659-1.175,0.479-1.823
			c-0.18-0.649-0.695-1.151-1.35-1.315l-1.046-0.263l3.822-3.821c0.248,0.002,0.498-0.039,0.74-0.125l20.015-7.145
			c0.858-0.308,1.444-1.121,1.444-2.034V2.181C44.211,0.99,43.221,0,42.028,0z"/>
	</g>
</g>
<g>
</g>
<g>
</g>
<g>
</g>
<g>
</g>
<g>
</g>
<g>
</g>
<g>
</g>
<g>
</g>
<g>
</g>
<g>
</g>
<g>
</g>
<g>
</g>
<g>
</g>
<g>
</g>
<g>
</g>
</svg>
