<?xml version="1.0" encoding="UTF-8" standalone="no"?>
<!-- Generator: Adobe Illustrator 18.0.0, SVG Export Plug-In . SVG Version: 6.00 Build 0)  -->

<svg
   xmlns:dc="http://purl.org/dc/elements/1.1/"
   xmlns:cc="http://creativecommons.org/ns#"
   xmlns:rdf="http://www.w3.org/1999/02/22-rdf-syntax-ns#"
   xmlns:svg="http://www.w3.org/2000/svg"
   xmlns="http://www.w3.org/2000/svg"
   xmlns:sodipodi="http://sodipodi.sourceforge.net/DTD/sodipodi-0.dtd"
   xmlns:inkscape="http://www.inkscape.org/namespaces/inkscape"
   version="1.1"
   id="Capa_1"
   x="0px"
   y="0px"
   viewBox="0 0 32 32"
   xml:space="preserve"
   inkscape:version="0.48.5 r10040"
   width="100%"
   height="100%"
   sodipodi:docname="train16.svg"><metadata
     id="metadata5251"><rdf:RDF><cc:Work
         rdf:about=""><dc:format>image/svg+xml</dc:format><dc:type
           rdf:resource="http://purl.org/dc/dcmitype/StillImage" /></cc:Work></rdf:RDF></metadata><defs
     id="defs5249" /><sodipodi:namedview
     pagecolor="#ffffff"
     bordercolor="#666666"
     borderopacity="1"
     objecttolerance="10"
     gridtolerance="10"
     guidetolerance="10"
     inkscape:pageopacity="0"
     inkscape:pageshadow="2"
     inkscape:window-width="1366"
     inkscape:window-height="705"
     id="namedview5247"
     showgrid="false"
     inkscape:zoom="2.5175208"
     inkscape:cx="98.6865"
     inkscape:cy="98.6865"
     inkscape:window-x="0"
     inkscape:window-y="27"
     inkscape:window-maximized="1"
     inkscape:current-layer="Capa_1" /><path
     d="m 30.901259,22.59655 c 0.587065,-0.0883 1.037943,-0.60337 1.037943,-1.22744 v -8.39547 c 0,-0.68601 -0.544426,-1.24218 -1.21596,-1.24218 H 27.637786 V 4.74479 c 0,-0.68601 -0.544426,-1.24218 -1.21596,-1.24218 H 20.59884 c -0.671534,0 -1.21596,0.55617 -1.21596,1.24218 v 6.98667 H 15.519696 V 6.70975 h 0.698933 c 0.671534,0 1.21596,-0.556 1.21596,-1.24218 V 1.24218 C 17.434589,0.556 16.890163,0 16.218629,0 H 1.2159595 C 0.54442558,0 0,0.556 0,1.24218 v 4.22539 c 0,0.68618 0.54442558,1.24218 1.2159595,1.24218 h 0.6986092 v 14.65936 c 0,0.67061 0.5202685,1.21535 1.1707258,1.23986 C 2.4004661,23.58284 1.9956327,24.77533 1.9956327,26.06338 1.9956327,29.33694 4.6026498,32 7.8069461,32 9.674822,32 11.338417,31.0942 12.4023,29.69104 13.466021,31.09437 15.129778,32 16.997654,32 18.86553,32 20.529125,31.0942 21.593008,29.69104 22.656892,31.09437 24.320486,32 26.188362,32 29.392821,32 32,29.33694 32,26.06338 31.999676,24.77003 31.591437,23.57257 30.901259,22.59655 z M 21.814799,5.98697 h 3.391068 v 5.74449 H 21.814799 V 5.98697 z m -1.215959,8.22885 h 5.822986 3.085457 v 5.91111 H 15.519696 V 14.21582 H 20.59884 z M 2.4319189,2.48436 H 15.002508 V 4.22539 H 14.303574 3.1305282 2.4319189 V 2.48436 z M 13.087777,6.70975 v 6.26389 7.15329 H 4.3464876 V 6.70975 H 13.087777 z M 7.806784,29.51564 c -1.8633363,0 -3.3793945,-1.54874 -3.3793945,-3.45226 0,-1.90351 1.5160582,-3.45226 3.3793945,-3.45226 1.8633363,0 3.379395,1.54875 3.379395,3.45226 0,1.90352 -1.5158966,3.45226 -3.379395,3.45226 z m 9.190708,0 c -1.863336,0 -3.379395,-1.54874 -3.379395,-3.45226 0,-1.90351 1.516059,-3.45226 3.379395,-3.45226 1.863336,0 3.379395,1.54875 3.379395,3.45226 0,1.90352 -1.516059,3.45226 -3.379395,3.45226 z m 9.190546,0 c -1.863336,0 -3.379395,-1.54874 -3.379395,-3.45226 0,-1.90351 1.516059,-3.45226 3.379395,-3.45226 1.863498,0 3.379719,1.54875 3.379719,3.45226 0,1.90352 -1.516059,3.45226 -3.379719,3.45226 z"
     id="path5215"
     inkscape:connector-curvature="0" /><g
     id="g5217"
     transform="translate(0,-165.373)" /><g
     id="g5219"
     transform="translate(0,-165.373)" /><g
     id="g5221"
     transform="translate(0,-165.373)" /><g
     id="g5223"
     transform="translate(0,-165.373)" /><g
     id="g5225"
     transform="translate(0,-165.373)" /><g
     id="g5227"
     transform="translate(0,-165.373)" /><g
     id="g5229"
     transform="translate(0,-165.373)" /><g
     id="g5231"
     transform="translate(0,-165.373)" /><g
     id="g5233"
     transform="translate(0,-165.373)" /><g
     id="g5235"
     transform="translate(0,-165.373)" /><g
     id="g5237"
     transform="translate(0,-165.373)" /><g
     id="g5239"
     transform="translate(0,-165.373)" /><g
     id="g5241"
     transform="translate(0,-165.373)" /><g
     id="g5243"
     transform="translate(0,-165.373)" /><g
     id="g5245"
     transform="translate(0,-165.373)" /></svg>